<svg width="64" height="64" fill="none">
    <g>
        <circle cx="32" cy="32" r="32" fill="#2E77E4"/>
        <path d="M19.3297 31.62C20.263 31.62 21.0564 31.48 21.7097 31.2C22.363 30.9067 22.8897 30.52 23.2897 30.04C23.703 29.56 23.9964 29 24.1697 28.36C24.3564 27.72 24.4497 27.0467 24.4497 26.34C24.4497 25.7933 24.3697 25.3 24.2097 24.86C24.0497 24.4067 23.7964 24.0267 23.4497 23.72C23.1164 23.4 22.6897 23.1533 22.1697 22.98C21.663 22.8067 21.063 22.72 20.3697 22.72H18.0497L16.9497 31.62H19.3297ZM20.9697 17.86C22.7564 17.86 24.2764 18.0533 25.5297 18.44C26.7964 18.8133 27.8297 19.3333 28.6297 20C29.4297 20.6667 30.0097 21.46 30.3697 22.38C30.743 23.2867 30.9297 24.2733 30.9297 25.34C30.9297 26.4067 30.783 27.4267 30.4897 28.4C30.2097 29.36 29.7964 30.2467 29.2497 31.06C28.703 31.86 28.0364 32.5733 27.2497 33.2C26.463 33.8133 25.563 34.32 24.5497 34.72C24.9497 34.9467 25.3164 35.2267 25.6497 35.56C25.983 35.88 26.263 36.2733 26.4897 36.74L30.7297 47H24.8497C24.303 47 23.843 46.8933 23.4697 46.68C23.1097 46.4533 22.8497 46.1467 22.6897 45.76L19.5297 37.14C19.3697 36.78 19.1697 36.52 18.9297 36.36C18.6897 36.2 18.3297 36.12 17.8497 36.12H16.3897L15.0497 47H8.56969L12.1297 17.86H20.9697ZM43.9 31.62C44.8333 31.62 45.6267 31.48 46.28 31.2C46.9333 30.9067 47.46 30.52 47.86 30.04C48.2733 29.56 48.5667 29 48.74 28.36C48.9267 27.72 49.02 27.0467 49.02 26.34C49.02 25.7933 48.94 25.3 48.78 24.86C48.62 24.4067 48.3667 24.0267 48.02 23.72C47.6867 23.4 47.26 23.1533 46.74 22.98C46.2333 22.8067 45.6333 22.72 44.94 22.72H42.62L41.52 31.62H43.9ZM45.54 17.86C47.3267 17.86 48.8467 18.0533 50.1 18.44C51.3667 18.8133 52.4 19.3333 53.2 20C54 20.6667 54.58 21.46 54.94 22.38C55.3133 23.2867 55.5 24.2733 55.5 25.34C55.5 26.4067 55.3533 27.4267 55.06 28.4C54.78 29.36 54.3667 30.2467 53.82 31.06C53.2733 31.86 52.6067 32.5733 51.82 33.2C51.0333 33.8133 50.1333 34.32 49.12 34.72C49.52 34.9467 49.8867 35.2267 50.22 35.56C50.5533 35.88 50.8333 36.2733 51.06 36.74L55.3 47H49.42C48.8733 47 48.4133 46.8933 48.04 46.68C47.68 46.4533 47.42 46.1467 47.26 45.76L44.1 37.14C43.94 36.78 43.74 36.52 43.5 36.36C43.26 36.2 42.9 36.12 42.42 36.12H40.96L39.62 47H33.14L36.7 17.86H45.54Z" fill="white"/>
    </g>
</svg>
